<svg width="49" height="46" viewBox="0 0 49 46" fill="none" xmlns="http://www.w3.org/2000/svg">
<path fill-rule="evenodd" clip-rule="evenodd" d="M35.3017 29.8129L48.226 41.8438C48.6803 42.267 48.9354 42.8408 48.9351 43.439C48.9349 44.0373 48.6794 44.6109 48.2248 45.0338C47.7702 45.4566 47.1538 45.6941 46.5111 45.6939C45.8685 45.6937 45.2522 45.4558 44.7979 45.0327L31.8736 33.0018C28.01 35.7874 23.1516 37.0983 18.2866 36.6677C13.4216 36.2372 8.91548 34.0976 5.685 30.6842C2.45452 27.2708 0.742311 22.84 0.896685 18.2932C1.05106 13.7463 3.06043 9.42501 6.51601 6.2083C9.9716 2.9916 14.6138 1.12115 19.4983 0.977443C24.3828 0.83374 29.1427 2.42759 32.8096 5.43474C36.4765 8.4419 38.775 12.6365 39.2375 17.1652C39.7 21.6938 38.2918 26.2165 35.2993 29.8129H35.3017ZM20.1072 32.275C23.93 32.275 27.5962 30.8614 30.2993 28.3452C33.0024 25.8289 34.5209 22.4162 34.5209 18.8577C34.5209 15.2992 33.0024 11.8865 30.2993 9.37022C27.5962 6.85398 23.93 5.44037 20.1072 5.44037C16.2844 5.44037 12.6182 6.85398 9.91514 9.37022C7.21204 11.8865 5.69345 15.2992 5.69345 18.8577C5.69345 22.4162 7.21204 25.8289 9.91514 28.3452C12.6182 30.8614 16.2844 32.275 20.1072 32.275V32.275ZM27.3141 21.0939H22.5095V25.5664C22.5095 26.1594 22.2564 26.7282 21.8059 27.1476C21.3554 27.567 20.7443 27.8026 20.1072 27.8026C19.4701 27.8026 18.859 27.567 18.4085 27.1476C17.958 26.7282 17.7049 26.1594 17.7049 25.5664V21.0939H12.9003C12.2632 21.0939 11.6522 20.8583 11.2017 20.4389C10.7511 20.0196 10.498 19.4508 10.498 18.8577C10.498 18.2646 10.7511 17.6958 11.2017 17.2764C11.6522 16.8571 12.2632 16.6215 12.9003 16.6215H17.7049V12.149C17.7049 11.556 17.958 10.9872 18.4085 10.5678C18.859 10.1484 19.4701 9.91281 20.1072 9.91281C20.7443 9.91281 21.3554 10.1484 21.8059 10.5678C22.2564 10.9872 22.5095 11.556 22.5095 12.149V16.6215H27.3141C27.9512 16.6215 28.5622 16.8571 29.0127 17.2764C29.4633 17.6958 29.7164 18.2646 29.7164 18.8577C29.7164 19.4508 29.4633 20.0196 29.0127 20.4389C28.5622 20.8583 27.9512 21.0939 27.3141 21.0939Z" fill="#212C40"/>
</svg>
